<svg xmlns="http://www.w3.org/2000/svg" viewBox="0 0 247.27 301.36"><defs><style>.cls-1{isolation:isolate}.cls-2{fill:#c9c9c9}.cls-3{fill:#fff}.cls-4{fill:#e0e0e0}.cls-10,.cls-15,.cls-18,.cls-20,.cls-21,.cls-22,.cls-4,.cls-8{mix-blend-mode:multiply}.cls-5,.cls-9{fill:#f1ba95}.cls-6{fill:#e19770}.cls-7{fill:#bb6736}.cls-10,.cls-21,.cls-8{fill:#f0af85}.cls-8{opacity:.4}.cls-15,.cls-22,.cls-9{opacity:.5}.cls-9{mix-blend-mode:screen}.cls-10{opacity:.7}.cls-11{fill:#cfcfcf}.cls-12,.cls-15{fill:#734737}.cls-13{fill:#935b46}.cls-14{fill:#1c0b00}.cls-16{fill:#bb7252}.cls-17{fill:#8b323d}.cls-18{fill:#d4d4d4}.cls-19,.cls-20{fill:#3c3c3b}.cls-20,.cls-21{opacity:.6}.cls-22{fill:#bdbdbd}</style></defs><g class="cls-1"><g id="Layer_2" data-name="Layer 2"><g id="Layer_1-2" data-name="Layer 1"><path d="M228.6,226.42c-1.15-6.79-4.44-13.48-6.62-20q-3.63-10.86-7.36-21.69c-9.78-28.14-24.43-54.54-22.08-85.31.41-5.38,3.56-16.93-1-21.47-4.85-4.84-14.58-2.09-20.41-.91-9.77,2-19.37,5-29,7.41Q127.33,88.24,112.54,92c-19.44,5-39.11,9.22-58.46,14.54-7,1.91-14.76,3.28-21.11,6.87-4.83,2.74-3.34,6.6-.31,10,.05,4.92-2.59,10.58-3.95,14.91-1.85,5.91-3.88,11.76-5.8,17.64-4.06,12.4-8.26,24.73-11.86,37.27C7.81,204.54,5.19,215.93,3,227.45c-1.8,9.37-3.67,19.32-2.73,28.9.18,1.82.89,4.88,3,5.51,1.58.47,3.19-.22,4.79-.45a26.44,26.44,0,0,1,8.42.09c11.15,1.87,18.26,11.05,23.51,20.2,4.89,8.52,10.71,15.77,20.51,18.48,6.14,1.7,12.61,1.34,19,.33,11.82,1,23.84-.75,35.51-2.5,11.52-1.73,20.7-5.71,28.24-14.65,10.59-12.53,28.46-14,43.8-14.85,10.85-.57,21.2-2.38,27-12.4,3.48-6,6.71-11.92,11.22-17.24A15.12,15.12,0,0,0,228.6,226.42Z" class="cls-2"/><path d="M226.94,232.85c-.71,3.49-3.61,6.23-5.67,9-4.27,5.68-7,12.84-11.59,18.12-4.08,4.64-11.61,5.58-17.38,6.15-6.32.62-12.66,1-19,1.72l-1,.13c-2.87-5.26-3.77-11.6-5.17-17.34-1.73-7.1-3.19-14.27-4.91-21.38-.08-.3-.5.09-.45.3,1.72,7.2,2.87,14.51,4.38,21.75,1.12,5.32,1.74,12,4.54,16.89-9.9,1.49-19.15,4.73-26.53,11.85-1.54,1.5-2.9,3.06-4.27,4.58-.59-4.62-2.39-9.4-3.51-13.93-1.41-5.74-2.57-11.52-3.78-17.31-2.25-10.76-4.6-21.6-5.6-32.56,0-.24-.36.08-.36.24.46,11.15,2.6,22.22,4.75,33.15,2.05,10.42,3.51,21.57,7.55,31.45a26.37,26.37,0,0,1-6.58,5.4c-5.61,3.08-12.28,4.29-18.53,5.22-5.9.88-11.82,1.55-17.74,1.9-4.21.6-8.45.53-12.69.81a95.57,95.57,0,0,1-14.25.38,43.9,43.9,0,0,1-5.09-.72c-.88-.13-1.76-.29-2.63-.49-11.14-2.5-16.85-12.65-22-21.82a35.11,35.11,0,0,0-3-4.51.92.92,0,0,0,.2-.47c.73-13.65-.16-27.35.6-41,0-.35-.43,0-.45.19-1.09,13.29-1,26.59-1.49,39.9a34.73,34.73,0,0,0-15.07-10.29c-4.47-1.52-8.46-1.23-13-.6-3.18.44-4.32-.32-5-3.45a23.36,23.36,0,0,1-.3-5.35c.13-11,2.42-22,4.68-32.78,2.53-12,5.74-23.86,9.31-35.62s7.59-23.58,11.4-35.36c1.88-5.84,3.65-11.7,5.14-17.66.83-3.29,1.8-6.11.16-9.3-.11-.2-.44.16-.38.32a10.11,10.11,0,0,1,.42,2.27,21.35,21.35,0,0,1-1.76-2.68c-2.32-4.14,3.18-6.15,5.58-7,3.39-1.25,7-2.2,10.48-3.14,7.62-2,15.29-3.83,23-5.62q22.95-5.33,45.77-11.18C131,89,146.32,85.18,161.61,81.13a118.29,118.29,0,0,1,20.1-3.68c4.56-.4,8.54.55,9.8,5.44,1.09,4.21,0,9.24-.34,13.5a114.19,114.19,0,0,0,4.28,42.86C199.3,152.52,205,165.18,210,178c5.27,13.56,9.38,27.56,14.47,41.19C226.12,223.53,227.9,228.2,226.94,232.85Z" class="cls-3"/><path d="M224.51,219.23C219.42,205.6,215.31,191.6,210,178c-5-12.86-10.74-25.52-14.59-38.79a114.19,114.19,0,0,1-4.28-42.86c.38-4.26,1.43-9.29.34-13.5-1.26-4.89-5.24-5.84-9.8-5.44a118.29,118.29,0,0,0-20.1,3.68C146.32,85.18,131,89,115.67,92.93S85.2,100.56,69.9,104.11c-7.69,1.79-15.36,3.57-23,5.62-3.48.94-7.09,1.89-10.48,3.14-2.4.89-7.9,2.9-5.58,7a2.12,2.12,0,0,0,.12.2c-.1-.47-.2-1-.29-1.42-.15-.73,1-1.1,1.1-.37s.27,1.32.41,2c0-.17.28-.49.38-.3a8.45,8.45,0,0,1,.73,5.5c1,4.8,2,9.61,2.6,14.49,2.1,18.32-.64,36.88-1.91,55.17-1.14,16.58-2.3,33.65-7.81,49.47-1.66,4.77-4,10.39-10.19,8.82s-9.75-6.4-11.43-12.29A45.13,45.13,0,0,1,3.32,235a110.8,110.8,0,0,0-1.43,15.72,23.36,23.36,0,0,0,.3,5.35c.7,3.13,1.84,3.89,5,3.45,4.54-.63,8.53-.92,13,.6a34.73,34.73,0,0,1,15.07,10.29c.49-13.31.4-26.61,1.49-39.9,0-.22.47-.54.45-.19-.76,13.67.13,27.37-.6,41a.92.92,0,0,1-.2.47,35.11,35.11,0,0,1,3,4.51c5.19,9.17,10.9,19.32,22,21.82.87.2,1.75.36,2.63.49a43.9,43.9,0,0,0,5.09.72A95.57,95.57,0,0,0,83.45,299c4.24-.28,8.48-.21,12.69-.81,5.92-.35,11.84-1,17.74-1.9,6.25-.93,12.92-2.14,18.53-5.22a26.37,26.37,0,0,0,6.58-5.4c-4-9.88-5.5-21-7.55-31.45-2.15-10.93-4.29-22-4.75-33.15,0-.16.34-.48.36-.24,1,11,3.35,21.8,5.6,32.56,1.21,5.79,2.37,11.57,3.78,17.31,1.12,4.53,2.92,9.31,3.51,13.93,1.37-1.52,2.73-3.08,4.27-4.58,7.38-7.12,16.63-10.36,26.53-11.85-2.8-4.92-3.42-11.57-4.54-16.89-1.51-7.24-2.66-14.55-4.38-21.75,0-.21.37-.6.45-.3,1.72,7.11,3.18,14.28,4.91,21.38,1.4,5.74,2.3,12.08,5.17,17.34l1-.13c6.31-.76,12.65-1.1,19-1.72,5.77-.57,13.3-1.51,17.38-6.15,4.64-5.28,7.32-12.44,11.59-18.12,2.06-2.75,5-5.49,5.67-9C227.9,228.2,226.12,223.53,224.51,219.23ZM45.16,274.61a.59.59,0,0,1-1.07-.08c-4.63-14.82-3.46-30.66-3.21-46-.05-1.71-.11-3.42-.19-5.13,0-.64,1-.87,1.14-.22,2.12,10,5.84,19.72,6.5,30C48.77,260.05,49.14,268.65,45.16,274.61Zm19-26.65c-.64,8.89-1.31,17.9-4,26.46a.59.59,0,0,1-1.13.06c-2.69-6.22-2.88-13.44-4.15-20-1-5.43-2.11-10.87-3-16.34a.58.58,0,0,1-.12-.31c0-.26,0-.51,0-.76-.31-2.06-.58-4.12-.8-6.2-1.27-11.81-1.63-23.69-2-35.55q-1-13.23-2.16-26.46a.59.59,0,0,1,1.07-.35C58,181.89,61.36,200.27,63.72,216.56,65.26,227.12,64.89,237.37,64.13,248Zm21,14.62c-1,5.89-2.15,12.41-4.55,17.95-.72,1.68-4.56,8.68-7.36,5.45-2.53-2.93-1.77-8.79-2.08-12.42-.94-10.91-1-21.83-1-32.76q-.36-3.51-.63-7c-.42-5.47-.62-11-1.1-16.43a112,112,0,0,1-.66-14.87.6.6,0,0,1,.71-.6A9.52,9.52,0,0,1,73.61,205c3.5,3.93,5.64,9,7.37,13.89a92.56,92.56,0,0,1,4.65,17.69A83,83,0,0,1,85.17,262.58Z" class="cls-4"/><path d="M131.44,254.19c-.86-4.36-1.7-8.75-2.45-13.15-1.38,17.28-2.51,34.63-.56,51.82a33.28,33.28,0,0,0,4-1.82,26.37,26.37,0,0,0,6.58-5.4C135,275.76,133.49,264.61,131.44,254.19Z" class="cls-4"/><path d="M167.82,253.39a92.35,92.35,0,0,0,2.46,9.66Q169,258.23,167.82,253.39Z" class="cls-4"/><path d="M129.25,222.88l-2,.23c.33,3,.77,6.09,1.26,9.12C128.8,229.11,129,226,129.25,222.88Z" class="cls-4"/><path d="M162,230.17c-.29,8.68,0,17.33.08,26,0,4.55.07,9.16.44,13.72a68.41,68.41,0,0,1,8.26-1.75c-2.8-4.92-3.42-11.57-4.54-16.89C164.74,244.25,163.6,237.16,162,230.17Z" class="cls-4"/><path d="M224.51,219.23C219.42,205.6,215.31,191.6,210,178c-5-12.86-10.74-25.52-14.59-38.79a114.19,114.19,0,0,1-4.28-42.86c.38-4.26,1.43-9.29.34-13.5-1.26-4.89-5.24-5.84-9.8-5.44a118.29,118.29,0,0,0-20.1,3.68C146.32,85.18,131,89,115.67,92.93S85.2,100.56,69.9,104.11c-7.69,1.79-15.36,3.57-23,5.62-3.48.94-7.09,1.89-10.48,3.14-.68.26-1.63.61-2.57,1.07,3.42,7.56,5.28,15.73,7.42,23.78a175.66,175.66,0,0,0,8.29,22.89C52.84,168.42,56,176.3,60,183.78c7.62,14.31,18,26.94,33.32,33.23a71.91,71.91,0,0,0,33.42,5.05c0-.34-.05-.68-.07-1,0-.16.34-.48.36-.24,0,.41.09.81.13,1.22A71.52,71.52,0,0,0,140,219.65,103.74,103.74,0,0,0,153,215.11c3.87-1.66,8-3.34,11.37-5.94,5.62-4.37,9.13-10.73,14.57-15.28a.59.59,0,0,1,.88.3c1.36,6.8.52,13.58.32,20.44a125.34,125.34,0,0,0,1.27,21.12c1.46,10.25,2.34,20.67,3.79,31,2.38-.19,4.75-.39,7.13-.62,5.77-.57,13.3-1.51,17.38-6.15,4.64-5.28,7.32-12.44,11.59-18.12,2.06-2.75,5-5.49,5.67-9C227.9,228.2,226.12,223.53,224.51,219.23Z" class="cls-4"/><path d="M44.9,141.48c-1.31-10-2.33-20.29-5-30-.07-.24-.19-.34-.33-.34l-.11-.21c-.23-.43-.81,0-1,.27a1.12,1.12,0,0,0-.22,1.08.5.5,0,0,0,.13.23.18.18,0,0,0,.17.11l.09.22,0,0c2.09,8.5,2.93,17.4,4.13,26,1.5,10.79,2.27,21.57,2.87,32.45,1.23,22.14.27,44.21.75,66.35,0,.48.58.05.6-.25.92-21.2,1.36-42.53.4-63.74C46.91,163,46.31,152.21,44.9,141.48Z" class="cls-2"/><path d="M59.94,129.94s-3.18-6.55-7.77-6.37-12.89,6.53-14,15.58,17.41,22,19.1,23S65.23,144.1,59.94,129.94Z" class="cls-5"/><path d="M57.39,162.68a1.7,1.7,0,0,1-.37-.1c-.21-.13-20.55-13.73-19.32-23.49,1.11-9,9.4-15.78,14.45-16h.2c4.73,0,7.88,6.36,8,6.64,4.7,12.59.44,28.81-1.87,32.15C58.11,162.43,57.76,162.68,57.39,162.68Zm-5-38.66h-.16c-4.15.16-12.45,6.05-13.58,15.17-1,8.35,16,20.83,18.8,22.54,1.71-1,7-18.47,2.1-31.64C59.5,130.08,56.5,124,52.35,124Z" class="cls-6"/><path d="M46.32,135.64a6.67,6.67,0,0,1,.17-1.35,5.76,5.76,0,0,1,.56-1.5A2.15,2.15,0,0,1,49,131.56a4,4,0,0,1,2.45,1.14,7.56,7.56,0,0,1,1,1,8.83,8.83,0,0,1,.92,1.09,16.58,16.58,0,0,1,1.56,2.5A27.27,27.27,0,0,1,56.14,140c.33.95.63,1.9.87,2.86a27,27,0,0,1,.58,2.81c.17.92.25,1.82.33,2.67s.1,1.65.11,2.4a22.14,22.14,0,0,1-.29,3.58,5.52,5.52,0,0,1-.26,1l-.13.33s0-.13,0-.36a8.22,8.22,0,0,0,0-1,28.78,28.78,0,0,0-.29-3.5,51.29,51.29,0,0,0-2.44-10.3c-.35-.9-.69-1.78-1.12-2.63a18.22,18.22,0,0,0-1.36-2.38,8.42,8.42,0,0,0-.76-1.06,6.86,6.86,0,0,0-.81-.94,3.33,3.33,0,0,0-1.72-1.1,1.6,1.6,0,0,0-1.42.69,5.48,5.48,0,0,0-.75,1.29A9.57,9.57,0,0,0,46.32,135.64Z" class="cls-7"/><path d="M47.79,146.58l1.69.9.8.42c.28.16.59.26.88.42s.63.26.94.35a3.75,3.75,0,0,0,.94.22,2.67,2.67,0,0,0,.89,0,2.59,2.59,0,0,1,.4-.09c.13,0,.24-.13.37-.18a2.62,2.62,0,0,0,.67-.49,3.87,3.87,0,0,0,.54-.62,8.69,8.69,0,0,0,.75-1.1c.18-.28.3-.44.3-.44s0,.19,0,.53a4.61,4.61,0,0,1-.26,1.4,2.78,2.78,0,0,1-.43.91,2.89,2.89,0,0,1-.8.89,4.52,4.52,0,0,1-.56.37l-.67.23a4.34,4.34,0,0,1-1.39.05,5.34,5.34,0,0,1-1.25-.35,6,6,0,0,1-1.07-.55A7.94,7.94,0,0,1,49,148.15,6.6,6.6,0,0,1,47.79,146.58Z" class="cls-7"/><path d="M59.94,129.94s-3.18-6.55-7.77-6.37c-3.76.14-10,4.41-12.74,10.88,4,3.56,10.79,3.72,11,10.58a.77.77,0,0,1-1,.68,12.87,12.87,0,0,1-4.08-1.83c1.19,2.93,3.29,5.35,4.48,8.37.37.92,1,2.85-.25,3.51a1.92,1.92,0,0,1-.48.19,75.85,75.85,0,0,0,8.11,6.23C59,163.2,65.23,144.1,59.94,129.94Z" class="cls-8"/><path d="M44.64,145.91c-.73-1.69-1.39-3.39-2-5.12a18.62,18.62,0,0,1-1-2.7c-.07-.38-.43-.42-.76-.43a.17.17,0,0,0-.13.1c-.28.62-.8,1-.92,1.7a6,6,0,0,0,.64,2.74,8.56,8.56,0,0,0,3.3,4.58C44.19,147.05,44.82,146.32,44.64,145.91Z" class="cls-9"/><path d="M182.2,123.58s2.49-6.84,7.07-7.14,13.5,5.16,15.56,14-15,23.71-16.61,24.9S178.41,138.22,182.2,123.58Z" class="cls-5"/><path d="M188.05,155.89c-.39,0-.79-.28-1.26-.9-3-3.82-8.24-19.15-5-31.52.11-.33,2.66-7.18,7.49-7.49s13.93,5.37,16,14.4c2.23,9.59-16.59,25.22-16.79,25.37A.74.74,0,0,1,188.05,155.89Zm1.59-39h-.34c-4.23.28-6.64,6.78-6.67,6.84-3.5,13.57,3.58,30.4,5.39,31.21,2.59-2,18.27-16.16,16.36-24.36S194.24,116.89,189.64,116.89Z" class="cls-6"/><path d="M196.34,127.84a6.47,6.47,0,0,0-.31-1.32,5.58,5.58,0,0,0-.71-1.44,2.18,2.18,0,0,0-2.06-1,4,4,0,0,0-2.31,1.39,7.54,7.54,0,0,0-.89,1.07,8.14,8.14,0,0,0-.8,1.18,16.75,16.75,0,0,0-1.3,2.65,28.07,28.07,0,0,0-.93,2.86c-.23,1-.43,2-.57,2.94s-.24,1.94-.29,2.86-.06,1.84,0,2.69.07,1.65.14,2.39a24.15,24.15,0,0,0,.66,3.54,7,7,0,0,0,.36,1c.11.2.16.31.16.31s0-.12-.08-.35-.07-.56-.15-1a31.18,31.18,0,0,1-.06-3.52,51.11,51.11,0,0,1,1.35-10.49c.25-.93.51-1.85.84-2.73a21.45,21.45,0,0,1,1.1-2.51,9.56,9.56,0,0,1,.66-1.13,5.44,5.44,0,0,1,.71-1,3.27,3.27,0,0,1,1.59-1.28,1.59,1.59,0,0,1,1.48.54,5.36,5.36,0,0,1,.88,1.2A10.19,10.19,0,0,1,196.34,127.84Z" class="cls-7"/><path d="M196,138.88l-1.6,1.07-.75.5c-.25.19-.55.32-.83.51s-.6.33-.9.45a4.08,4.08,0,0,1-.91.31,2.71,2.71,0,0,1-.88.1l-.41,0a2.92,2.92,0,0,1-.38-.14,2.38,2.38,0,0,1-.72-.42c-.26-.14-.4-.39-.61-.56a9.49,9.49,0,0,1-.85-1l-.35-.41s0,.19.06.52a4.39,4.39,0,0,0,.41,1.37,2.86,2.86,0,0,0,.52.87,2.76,2.76,0,0,0,.89.79,5.54,5.54,0,0,0,.59.32q.34.09.69.15a4.29,4.29,0,0,0,1.39-.09,6.31,6.31,0,0,0,1.22-.47,7.53,7.53,0,0,0,1-.66,8.49,8.49,0,0,0,1.43-1.47A6.87,6.87,0,0,0,196,138.88Z" class="cls-7"/><path d="M182.2,123.58s2.49-6.84,7.07-7.14c3.75-.24,10.37,3.35,13.8,9.51-3.55,4-10.34,4.82-9.88,11.66a.78.78,0,0,0,1.06.58,12.91,12.91,0,0,0,3.87-2.25c-.88,3-2.71,5.67-3.59,8.79-.27,1-.67,2.93.62,3.47a2.26,2.26,0,0,0,.49.14,76.64,76.64,0,0,1-7.42,7C186.63,156.56,178.41,138.22,182.2,123.58Z" class="cls-8"/><path d="M199.07,137.89c.56-1.76,1-3.52,1.48-5.3a18.27,18.27,0,0,0,.72-2.8c0-.38.39-.46.71-.5a.18.18,0,0,1,.15.08c.34.59.89.91,1.08,1.6a6,6,0,0,1-.35,2.79,8.52,8.52,0,0,1-2.81,4.9C199.64,139,198.94,138.31,199.07,137.89Z" class="cls-9"/><path d="M186.72,113.11s0,0,0-.06c0-.56.1-1.12.16-1.68,1.26-10.49,6.6-21.37,2.59-31.87a47.75,47.75,0,0,0-20.06-24.09c-15.51-9.35-33.11-13.85-50.64-14.36l-4.25.22C97.14,43.6,80.1,49.89,65.65,60.81a47.71,47.71,0,0,0-17.46,26c-2.9,10.87,3.54,21.13,5.89,31.43.11.55.22,1.11.32,1.66a.11.11,0,0,1,0,0,79.46,79.46,0,0,1,0,28c-1.45,8.23,14.48,49.5,34.36,56.15,11.86,4,24.44,9.39,36.72,7.89,12.37.22,24.32-6.47,35.7-11.65,19.09-8.68,30.66-51.38,28.36-59.41A79.72,79.72,0,0,1,186.72,113.11Z" class="cls-5"/><path d="M121.22,212.92c-9.13,0-18.31-3.22-27.2-6.32-1.8-.63-3.58-1.26-5.35-1.85C77,200.83,67.69,185.7,63.22,177c-5.89-11.41-10-24.4-9.23-29a79.5,79.5,0,0,0,0-27.82c-.08-.45-.16-.85-.24-1.25l-.1-.45a88.32,88.32,0,0,0-2.84-9.24c-2.51-7.21-5.1-14.66-3-22.4A48.06,48.06,0,0,1,65.37,60.64C79.12,50.26,96.1,43.47,114.46,41l4.3-.23c18.56.55,36.14,5.54,50.89,14.44a48.11,48.11,0,0,1,20.26,24.32c2.86,7.47,1.05,15.15-.69,22.58a88.59,88.59,0,0,0-1.88,9.5l0,.4c0,.43-.08.85-.11,1.27A79.52,79.52,0,0,0,190,141c1.27,4.45-1.5,17.8-6.18,29.76-3.55,9.08-11.19,25.08-22.44,30.2-1.7.77-3.41,1.58-5.14,2.39-9.71,4.58-19.74,9.31-30.15,9.31h-.61A34.62,34.62,0,0,1,121.22,212.92ZM118.77,41.63l-4.22.22C96.37,44.29,79.55,51,65.93,61.3A47.21,47.21,0,0,0,48.64,87.08c-2,7.46.55,14.78,3,21.86a89.85,89.85,0,0,1,2.87,9.35l.1.46.24,1.22a80.64,80.64,0,0,1,0,28.19C53.43,156.53,69.63,197.33,89,203.8c1.77.59,3.57,1.22,5.37,1.85,8.81,3.08,17.92,6.27,26.89,6.27a36.77,36.77,0,0,0,4.25-.25h.66c10.2,0,20.14-4.69,29.76-9.22,1.73-.81,3.44-1.62,5.15-2.4,18.56-8.43,30.44-50.7,28.11-58.86a80.54,80.54,0,0,1-2.89-28c0-.48.08-.9.13-1.33l0-.42a89.13,89.13,0,0,1,1.89-9.61c1.71-7.29,3.48-14.83.73-22a47.14,47.14,0,0,0-19.87-23.86C154.56,47.11,137.13,42.17,118.77,41.63Z" class="cls-6"/><path d="M186.72,113.11s0,0,0-.06c0-.56.1-1.12.16-1.68,1.26-10.49,6.6-21.37,2.59-31.87a47.75,47.75,0,0,0-20.06-24.09c-15.51-9.35-33.11-13.85-50.64-14.36l-4.25.22C97.14,43.6,80.1,49.89,65.65,60.81a47.71,47.71,0,0,0-17.46,26c-2.9,10.87,3.54,21.13,5.89,31.43.11.55.22,1.11.32,1.66a.11.11,0,0,1,0,0,79.46,79.46,0,0,1,0,28c-1.45,8.23,14.48,49.5,34.36,56.15,11.86,4,24.44,9.39,36.72,7.89,12.37.22,24.32-6.47,35.7-11.65,19.09-8.68,30.66-51.38,28.36-59.41A79.72,79.72,0,0,1,186.72,113.11Zm-6.84,22.55a107,107,0,0,0-.94,11.49.59.59,0,0,1,.33.61c-.68,6.15-1.09,12.37-2.25,18.45-.75,3.95-1.7,8.53-4.71,11.44a.6.6,0,0,1-.92-.07c-2.39-4.08-2.17-9.35-4.56-13.31a10.64,10.64,0,0,0-2.49-1.15,69.57,69.57,0,0,0-13.94-2.71,166.37,166.37,0,0,0-31.24-.51,142.39,142.39,0,0,0-30.74,5.32c-4,1.23-8.08,2.59-9.73,6.88S77.18,181,75.9,185.29a.59.59,0,0,1-.84.4c-4.54-2.82-7.36-7.87-9.82-12.46-2.73-5.11-5.76-10.33-6.48-16.19-.92-7.54,1.46-15,1.54-22.57.08-7.28-1.53-14.24-3.36-21.21-3-3.27-1.19-7,2.26-9.93C63.47,99.65,68.88,97,74,94.74a105.57,105.57,0,0,1,23.47-7.42,101.48,101.48,0,0,1,49,3.41,95.41,95.41,0,0,1,21.7,9.78c5.3,3.34,10.74,7.71,13.07,13.73C184,121.61,181.17,128.32,179.88,135.66Z" class="cls-8"/><path d="M83.92,111.74c-7.17.38-14.24,4.56-16.46,11.69-1.51,4.83-2.38,10.79-.56,15.71a108.83,108.83,0,0,0,20.42,1.59c6.37,0,13.28-.08,19-3.26a.53.53,0,0,1,.4-.06c.82-5.75-2.46-13.06-5.64-17.4A19.8,19.8,0,0,0,83.92,111.74Z" class="cls-10"/><path d="M143.51,111.56a24.63,24.63,0,0,0-9.23,24.33,57.9,57.9,0,0,0,6.87,1.35,72.54,72.54,0,0,0,9.55.34,67.63,67.63,0,0,0,13-1.78c3.33-.8,8.95-1.9,9.66-5.93a18.82,18.82,0,0,0-29.89-18.31Z" class="cls-10"/><path d="M179.46,137.39a1.82,1.82,0,0,0-1.08,0l-.08,0c-1.79-.68-4.05,1.31-5.37,2.23-1.07.74-9.94,5.19-7.51,7.34,3.31,2.94,9.09,1.41,12.35-.76C179.87,144.79,183.23,138.84,179.46,137.39Z" class="cls-9"/><path d="M77.71,148.24c-1.83-1.5-4.06-2.42-5.84-4-2.29-2-5.21-7.52-8.51-7.55-4.33,0-2.56,8-2,10.33,1.53,6.12,6.44,7.69,12.24,6.22C75.21,152.89,80.46,150.51,77.71,148.24Z" class="cls-9"/><path d="M86.26,139.9c-27.41,1.9-17.83-27.18-1.71-28.29,7.39-.52,16.45,5.22,19.15,17.09C105.47,136.49,101.09,138.87,86.26,139.9Z" class="cls-3"/><path d="M83.78,140.45c-9.33,0-15-4.2-15.29-11.24-.27-7.82,6.67-17.42,16-18.06.32,0,.63,0,.95,0,7.09,0,16,5.48,18.69,17.49.7,3.06.44,5.26-.79,6.92-2.06,2.78-6.85,4.13-17.07,4.84C85.43,140.42,84.58,140.45,83.78,140.45ZM85.46,112c-.29,0-.59,0-.88,0-8.86.61-15.43,9.7-15.17,17.11.25,7.16,6.45,11,16.81,10.26,9.79-.68,14.54-2,16.4-4.47,1.06-1.43,1.26-3.39.63-6.16C100.63,117.28,92.19,112,85.46,112Z" class="cls-11"/><path d="M78.05,126.29c.34,7.26,4.59,12.94,9.5,12.71s8.61-6.31,8.28-13.56-4.6-12.94-9.49-12.7S77.71,119,78.05,126.29Z" class="cls-12"/><path d="M80.18,126.72c.26,5.54,3.51,9.87,7.25,9.69s6.58-4.81,6.33-10.35-3.51-9.87-7.25-9.68S79.93,121.19,80.18,126.72Z" class="cls-13"/><path d="M81.6,126.32c.2,4.37,2.76,7.79,5.72,7.66s5.19-3.8,5-8.18-2.76-7.79-5.72-7.66S81.39,122,81.6,126.32Z" class="cls-14"/><path d="M95.6,123.36a20,20,0,0,1,.23,2.08c.33,7.25-3.39,13.32-8.28,13.56s-9.16-5.45-9.5-12.71c0-.67,0-1.32,0-2C83.6,128,91.44,128.55,95.6,123.36Z" class="cls-15"/><path d="M81.17,119.64c-.52,1.88.1,3.66,1.37,4s2.73-.92,3.25-2.79-.1-3.66-1.38-4S81.68,117.77,81.17,119.64Z" class="cls-3"/><path d="M80.37,127.64c-.1,1,.34,1.82,1,1.88s1.3-.68,1.41-1.66-.35-1.83-1-1.9S80.48,126.65,80.37,127.64Z" class="cls-3"/><path d="M154.19,136.37c27.45-1,14.91-28.88-1.24-28.32-7.41.26-15.82,6.9-17.28,19C134.72,135,139.33,136.89,154.19,136.37Z" class="cls-3"/><path d="M150.09,136.67h0c-7.43,0-11.45-1-13.44-3.2-1.35-1.53-1.8-3.66-1.43-6.73,1.49-12.38,10-19.13,17.72-19.4,9.65-.35,17.69,9.15,17.83,17,.13,7.32-6.06,11.91-16.57,12.28C152.69,136.64,151.34,136.67,150.09,136.67Zm3.34-28.49H153c-7.29.25-15.41,6.72-16.84,18.58-.33,2.79.05,4.7,1.21,6,1.8,2,5.61,2.89,12.75,2.89h0c1.24,0,2.58,0,4.08-.08,10.08-.35,15.8-4.49,15.68-11.34C169.72,117,162.37,108.18,153.43,108.18Z" class="cls-11"/><path d="M160.93,122c.42,7.26-3.21,13.35-8.12,13.63s-9.22-5.38-9.65-12.63,3.23-13.35,8.13-13.62S160.52,114.74,160.93,122Z" class="cls-12"/><path d="M158.86,122.63c.31,5.53-2.47,10.19-6.2,10.39s-7-4.1-7.37-9.64,2.46-10.18,6.21-10.38S158.53,117.11,158.86,122.63Z" class="cls-13"/><path d="M157.41,122.38c.25,4.37-1.94,8-4.9,8.21s-5.55-3.24-5.8-7.62,1.93-8,4.89-8.21S157.16,118,157.41,122.38Z" class="cls-14"/><path d="M143.18,120.89a20.73,20.73,0,0,0,0,2.09c.43,7.25,4.75,12.9,9.65,12.63s8.54-6.37,8.12-13.63a18.07,18.07,0,0,0-.22-2C155.6,124.26,147.85,125.61,143.18,120.89Z" class="cls-15"/><path d="M157.15,115.69c.7,1.82.27,3.66-1,4.1s-2.81-.63-3.52-2.43-.28-3.65,1-4.11S156.44,113.89,157.15,115.69Z" class="cls-3"/><path d="M158.77,123.57c.2,1-.15,1.85-.82,2s-1.35-.54-1.57-1.51.17-1.85.81-2S158.56,122.6,158.77,123.57Z" class="cls-3"/><path d="M86.26,114.78a22,22,0,0,1,12.84,5.29,20.69,20.69,0,0,1,2.67,3.06c-3.85-8.08-11.1-11.95-17.22-11.52-7.49.51-13.57,7.07-15.18,13.74C72.59,119.13,79.55,114.37,86.26,114.78Z" class="cls-5"/><path d="M69.37,125.82a.41.41,0,0,1-.16,0,.47.47,0,0,1-.29-.54c1.55-6.42,7.54-13.55,15.59-14.1.32,0,.63,0,.95,0,6.71,0,13.24,4.6,16.68,11.72a.46.46,0,0,1,.11.3.47.47,0,0,1-.47.46.41.41,0,0,1-.38-.19,20.34,20.34,0,0,0-2.61-3,21.48,21.48,0,0,0-12.56-5.17c-6.31-.39-13.16,4-16.45,10.33A.47.47,0,0,1,69.37,125.82ZM85.46,112c-.3,0-.59,0-.88,0-6,.41-10.87,4.77-13.34,9.6,3.83-4.72,9.62-7.69,15.05-7.35a22.74,22.74,0,0,1,12.55,4.91C95.37,114.75,90.46,112,85.46,112Z" class="cls-6"/><path d="M151.06,112.72A22,22,0,0,1,168,117c-3.05-5.11-8.76-9.17-15-9-6,.21-12.64,4.6-15.73,12.68A23.17,23.17,0,0,1,151.06,112.72Z" class="cls-5"/><path d="M137.21,121.19a.41.41,0,0,1-.23-.07.45.45,0,0,1-.19-.56c2.39-6.26,8.32-12.7,16.15-13h.49c5.71,0,11.54,3.56,14.88,9.08a.47.47,0,0,1-.32.8.41.41,0,0,1-.29-.1,21.73,21.73,0,0,0-16.58-4.18A22.61,22.61,0,0,0,137.57,121,.46.46,0,0,1,137.21,121.19Zm16.22-12.69H153c-4.78.17-10.73,3.31-14.2,9.9A23.11,23.11,0,0,1,151,112.27a22.63,22.63,0,0,1,15.2,3C162.93,111.08,158.13,108.5,153.43,108.5Z" class="cls-6"/><path d="M149.35,173.21l-.7-1c-.14-.59-.88.14-.88.49,0,2.29-11.31.92-13.06.83q-6.21-.28-12.43-.24a105.57,105.57,0,0,0-12.69.91c-1,.12-12.27,2.78-12.36,2.34s-.58.11-.59.33a.49.49,0,0,0,0,.12.23.23,0,0,0,.07.21,5.67,5.67,0,0,0,3.06.74c3,2.06,5.55,4.8,9.16,6a32.74,32.74,0,0,0,15.14,1,40.59,40.59,0,0,0,22.37-10.1c.25,0,.51,0,.76-.08,1-.17,1.35-.42,1.37-.65l.09.06C149.07,174.45,149.76,173.47,149.35,173.21Z" class="cls-16"/><path d="M136.7,180.66c-4.36,2-9.27,2.79-14,3.39a27.43,27.43,0,0,1-14.66-1.94c-2.47-1.09-4.52-3-6.86-4.28,2.68-.44,5.52-1.83,8-2.23a126.66,126.66,0,0,1,20-1.29c5.16,0,10.69,1.05,15.89.68A44.6,44.6,0,0,1,136.7,180.66Z" class="cls-17"/><path d="M111.76,181.58a86.58,86.58,0,0,0,12.16.12A42.31,42.31,0,0,0,136,179.6c3.07-1.06,5.3-2.3,7-4.53-4.56,0-9.3-.76-13.75-.76a126.66,126.66,0,0,0-20,1.29,60,60,0,0,0-6.08,1.77C105,180.22,108,181.22,111.76,181.58Z" class="cls-3"/><path d="M111.58,176.18c4-.35,8-.47,12-.43,6.29.06,12.79.68,19-.69-4.43,0-9-.75-13.31-.75a126.66,126.66,0,0,0-20,1.29c-2.07.33-4.4,1.36-6.68,2C105.54,177.76,108.43,176.46,111.58,176.18Z" class="cls-18"/><path d="M133.1,189.88c-6.19,3-14,4.14-19.94.2a18.19,18.19,0,0,0,6.42,4.6c.34,0,.66,0,.94,0a24.71,24.71,0,0,0,12.6-4.44C133.24,190.17,133.35,189.76,133.1,189.88Z" class="cls-16"/><path d="M116,155.72a8.2,8.2,0,0,1-5.69-3.57c-2.34-3-.69-5.44.74-8.16,3.83-7.25,5.25-15,5.64-23.13,0-.22-.34,0-.36.17-.69,5.76-1.47,12-3.74,17.38-.8,1.9-1.86,3.66-2.72,5.53a22.86,22.86,0,0,1-2,2.8q-.4,1.26-.75,2.55a16.2,16.2,0,0,0,1.07,4.24c.2.31.42.62.64.92a11.11,11.11,0,0,0,5.65,2.82c.53.11,1,.22,1.52.37a18.57,18.57,0,0,1,5.21,1.86A6.93,6.93,0,0,0,116,155.72Z" class="cls-16"/><path d="M179.77,177.91c-2.4,1.76-8.62,9.54-9.78,6.76a53.29,53.29,0,0,1-2-5.81c-1.42-4.88-2.08-10.66-7.35-12.93-5.75-2.48-12.22-2.24-18.33-2.94-10.81-1.23-21.51-1.71-32.42-.07-3.68.55-7.34,1.28-10.95,2.16-4.94,1.22-13.28,3-16.28,7.59-2,3.05-2.09,7.28-2.72,10.77a53.2,53.2,0,0,1-1.42,6c-.87,2.88-2.87.17-3.57-.5a36.29,36.29,0,0,0-6.86-5.21c-.38-.22-.89.47-.7.81,5.89,10.45,14.87,19.85,26.34,23.9a94.63,94.63,0,0,0,22,5c.13.34,6.92.68,10,.42,3-.05,9.76-1.1,9.86-1.45a93.88,93.88,0,0,0,21.34-7.22c11-5.21,19-15.49,23.73-26.5C180.7,178.29,180.12,177.66,179.77,177.91ZM142.3,199.34c-2,1.08-3.86,2.59-6,3.28-5.84,1.92.5-6,0-5.38.84-.89,1.71-1.74,2.61-2.57a4.05,4.05,0,0,0,1.51-.9,40.26,40.26,0,0,1-15,4.37c-4.54.42-9.73.35-14.15-1.33.68.52,1.36,1.06,2,1.63-.59-.52,6.54,6.65.52,5.35-2.16-.47-4.22-1.77-6.27-2.65C101,198.32,91.28,178.82,93.05,177a20.41,20.41,0,0,1,4.77-3c3.45-1,6.94-1.94,10.42-2.91a120,120,0,0,1,18.3-2.28c7-.27,14.07,1.46,20.86,3.06a25.37,25.37,0,0,1,8.7,3.83C157.28,177,148.56,195.84,142.3,199.34Z" class="cls-19"/><path d="M166.84,194.91c-6.32,3.39-12.79,7.65-20.17,7.88a.59.59,0,0,1-.55-.85c3.14-5.44,7.88-9.78,10.78-15.36,2.07-4,6.32-11.76,1.58-15.34-4.37-3.31-11.27-4.53-16.6-5.29a96,96,0,0,0-22-.33,119.78,119.78,0,0,0-19.36,3.3c-4.91,1.28-12.57,3.6-12.17,10,.33,5.27,3.18,10.64,6,15.05,3.29,5.23,7.52,9.7,11.48,14.41.36.43-26.94-10.54-36.73-21,5.86,9.26,14.2,17.33,24.6,21a94.63,94.63,0,0,0,22,5c.13.34,6.92.68,10,.42,3-.05,9.76-1.1,9.86-1.45a93.88,93.88,0,0,0,21.34-7.22,45.15,45.15,0,0,0,16.83-14.4A67.08,67.08,0,0,1,166.84,194.91Zm-24.54,4.43c-2,1.08-3.86,2.59-6,3.28-5.84,1.92.5-6,0-5.38.84-.89,1.71-1.74,2.61-2.57a4.05,4.05,0,0,0,1.51-.9,40.26,40.26,0,0,1-15,4.37c-4.54.42-9.73.35-14.15-1.33.68.52,1.36,1.06,2,1.63-.59-.52,6.54,6.65.52,5.35-2.16-.47-4.22-1.77-6.27-2.65C101,198.32,91.28,178.82,93.05,177a20.41,20.41,0,0,1,4.77-3c3.45-1,6.94-1.94,10.42-2.91a120,120,0,0,1,18.3-2.28c7-.27,14.07,1.46,20.86,3.06a25.37,25.37,0,0,1,8.7,3.83C157.28,177,148.56,195.84,142.3,199.34Z" class="cls-20"/><path d="M217,67.84A113.62,113.62,0,0,0,203.5,40.46c-11.2-16.38-30.54-31-51-37.68-11.72-3.84-24.21-3.38-36.21-.59,0-.12,0-.23-.11-.19-24.7,6.21-48.6,15.89-67.66,31.46C40.43,40.05,32.28,47.87,28.33,57c-4.33,10-3.91,19.43-.92,29.41,0,.1,0,.21-.05.31-3.55,5.34-3.9,11-1.87,17.73a26.55,26.55,0,0,0-1.15,6.19c-.71,11.66,12.66,13.41,20.92,19.11a.46.46,0,0,0,.27.07,22.89,22.89,0,0,1,2.79,2.23,37.68,37.68,0,0,1,6.06,8.39.33.33,0,0,0,.44.16c.16.44.94-.21,1-.63.65-5.62-.1-11.18-.58-16.77a51.4,51.4,0,0,0-2.37-9.83c-.89-3-1.57-4.66-.94-7.39,5.77-7.13,14.81-12.66,23.64-16.33,13.08-5.43,28.31-7.81,42.59-8.7a100.19,100.19,0,0,1,45.94,7.91,114.4,114.4,0,0,1,17.12,9.34,74.66,74.66,0,0,1,7.64,5.55,43.36,43.36,0,0,0-2.56,15c0,5.08,0,10.82,2,15.55.07.17.25.18.4.18,4,0,8.5-3.38,11.67-6.42a132.72,132.72,0,0,0,12.85-10.81c3.52-3.34,6.65-7.38,7.56-11.89.49-2.4-.84-4.65-2.7-6.63-.15-.47-.32-.92-.49-1.37a1,1,0,0,0,.28-.47l0-.18a.48.48,0,0,0,.09-.28c0-.05,0-.1,0-.16.81-5,1.86-9.9,1.93-14.91C220,76.74,218.53,72.27,217,67.84Z" class="cls-2"/><path d="M217.32,91.77c-3.13-17.21-15-30.2-29.39-42.14-14.83-12.31-33.86-22.8-54.36-25.79-.16,0-.38.29-.19.32C152.93,27.78,170.65,38.5,185.21,50a134.32,134.32,0,0,1,21,20.33c6.14,7.56,8.68,15.57,10.35,24.5C212.19,84.71,204.63,77,194.42,70.29,182.15,62.18,169,55.72,153.88,52.72,122,46.4,88.93,58.3,62.67,74c-.12.07-.15.32,0,.22,26.83-14.93,58.35-25.19,90-19.5,14.61,2.62,26.62,9.32,38.74,16.46a84.69,84.69,0,0,1,15,11.22c4.71,4.4,7.46,9.41,9.91,14.84,0,0,0,0,0,0-1.38-1.22-2.85-2.3-4-3.2a134,134,0,0,0-18.3-11.71c-.29-.15-.74.41-.47.56,8.42,4.8,17.31,10.78,23.37,17.86,5.44,6.36-2.16,13.45-7.16,17.93-1.83,1.65-3.84,3.14-5.75,4.72-.69.58-3.41,2.48-5,4a8.56,8.56,0,0,1-.67.68l-.12.13-.05,0a10.19,10.19,0,0,1-2.87,1.76l-1.69,1c-1.15.69-2.41.91-3.51,1.64-1.28.86-1.76-3.83-1.89-4.61a63.25,63.25,0,0,1,1.13-23.78c3,2.62,5.65,5.66,6.52,8.74-1.58,1.65-3.38,3.41-3.9,5.54-.13.52.24.84.71.52,1-.67,1.56-1.85,2.38-2.72,1.5-1.59,2.79-3.47,4.14-5.2a46.83,46.83,0,0,0,2.67-4.48c.35-.58,1.19-1.62.85-2.32-.13-.26-.48.15-.51.29-.26,1.06-1.41,2.13-2.05,3L199,109.23c.68-8.61-3.76-16.86-11.85-22.21-11.39-7.51-26.63-9.65-39.74-14-.14,0-.34.24-.17.3,11.52,4.17,23.61,7.36,34.47,12.8,5.31,2.66,9.77,6.28,12.59,11.06,2.56,4.34,3.06,8.67,2.87,13.19-3.36-8.59-18.75-16.73-25.22-20.15-16.13-8.53-34.3-12-53.17-11.14-17.36.81-35.89,4.6-51,12.52a57,57,0,0,0-17.44,14.14,29.37,29.37,0,0,0-2.2,3.08,31.62,31.62,0,0,0-1.53,7A26.36,26.36,0,0,1,50,108.59c-.2,2.18,1.48,5.41,2,7.3a80.29,80.29,0,0,1,2.79,21.92,19.2,19.2,0,0,0-4.36-6c-.64-.57-1.28-1.13-1.95-1.65s-1.25-.79-1.86-1.2l-.16-.08v0c-.48-.32-.94-.66-1.39-1a11.29,11.29,0,0,1-1-.75c-7-4.2-15.21-6-17.65-14.34C23.8,103.45,32.28,92.62,38.75,86c.19-.2,0-.48-.25-.25-5.19,5-9.74,10.38-12.22,16.54-.46-4.59-1.08-8.92,1.52-13.37.08-.14.18-.26.27-.4.11.17.44-.11.4-.28a2.1,2.1,0,0,1-.06-.24c3.32-5.06,8.64-8.73,14.12-11.89,9.85-5.68,20.34-10.74,30.72-15.63,21-9.92,43.19-18.25,65.43-25.83.24-.09.46-.63,0-.51A436,436,0,0,0,62.32,63.91c-10.33,5.16-21.78,10-30.2,17.48a29.35,29.35,0,0,0-2.83,2.88c2.46-6.48,5.6-12.06,11.66-17a220.56,220.56,0,0,1,20.9-15.06c6.75-4.36,13.61-8.55,20.25-13,3.22-2.18,9.1-5.34,9.61-9.18a.38.38,0,0,0-.3-.45c-2.88-.71-7,1.53-9.52,2.49a148.39,148.39,0,0,0-14.65,6.39c-.17.08-.26.51,0,.38,4.14-1.93,8.37-3.61,12.72-5.15a65.45,65.45,0,0,1,9-2.77c1.39-.28-6.27,6.19-5.77,5.83-8.36,6-17.6,11.12-26.28,16.79C44.18,61.72,30.92,71,27.7,85,25.48,75,25.8,65.45,30.55,55.56,34.91,46.47,43.64,38.71,52,32.31c13-10,28-17.24,43.71-23.09-2.45,1.09-4.83,2.24-7.13,3.42C68,23.23,51,38.15,35.75,54.11c-.31.33.08.55.38.24C51,39.17,67.65,25.6,87.15,15s43.79-17,65.93-9.77c19.71,6.44,37.76,21.26,48.75,36.63,5.63,7.87,9.58,16.63,12.83,25.45A53.08,53.08,0,0,1,218,80.6,43.32,43.32,0,0,1,217.32,91.77Z" class="cls-3"/><path d="M143.8,66.44c-13.7-1.1-27.17.42-40.69,2.63-13,2.13-25.69,5.33-37.34,11C56.46,84.56,46.42,90.16,41,98.4c-2.21,3.32-2.42,7.46-2.18,11.16a29.55,29.55,0,0,0,.86,5.61,17.6,17.6,0,0,1-1.77-2c-2.7-3.64-2.79-8.07-2.15-12.28,0-.25-.33-.05-.37.09-1.37,5.35-1,10.37,2,14.48,2,1.74,3.9,3.54,6,5.17-.26-1-.49-2-.67-3a25,25,0,0,1-1.41-4.42c-1.16-5.71-.81-11.82,3-16.73,6.16-7.93,18.85-13.75,28.46-17.71,10.09-4.16,21.12-6.28,31.94-8.31,12.82-2.41,25.85-4.14,38.95-3.63C143.77,66.86,144,66.46,143.8,66.44Z" class="cls-2"/><path d="M175.89,102c-4.73-5.14-11.56-8.55-19.31-7.4-4.76.72-8.61,3.28-12.33,6.05a45.22,45.22,0,0,0-4,2.65,36.67,36.67,0,0,1-3.1,2.17c-1.29.71-2.65,0-3.9-.27a.23.23,0,0,0-.15,0l-.28-.3c.1.1-.36-.27-.31-.13-.09-.26-.37.19-.39.29s.3.62.37.83a2.53,2.53,0,0,0,.54.79,6,6,0,0,1-1.86-1.32.13.13,0,0,0-.2,0l-.05-.12c-.11-.37-.5.08-.51.3a4.79,4.79,0,0,0,.57,2.45,7.47,7.47,0,0,1-1.49-2.69c-.12-.42-.59.13-.55.41.31,2.37,2.61,5.65,4.94,6.06.35.06.87-.66.54-1h0a3.94,3.94,0,0,0,1.9-.33,96.69,96.69,0,0,1,11.83-4.33,96.6,96.6,0,0,1,15.58-2.71c4-.37,7.36.16,11.22.41C175.68,103.93,176.35,102.47,175.89,102Z" class="cls-21"/><path d="M61.45,107.91c4.17-5.6,10.61-9.7,18.44-9.35,4.81.21,8.9,2.37,12.88,4.74a42.56,42.56,0,0,1,4.3,2.21,34.59,34.59,0,0,0,3.31,1.83c1.36.58,2.64-.29,3.85-.67a.21.21,0,0,1,.15,0l.26-.33c-.09.11.32-.3.29-.16.06-.26.39.15.42.24s-.24.65-.29.87a2.34,2.34,0,0,1-.45.85,6.08,6.08,0,0,0,1.71-1.51.13.13,0,0,1,.2,0l0-.13c.08-.38.52,0,.55.25a4.89,4.89,0,0,1-.31,2.49,7.29,7.29,0,0,0,1.19-2.83c.08-.43.61.07.6.35-.07,2.39-2,5.9-4.29,6.55-.34.09-.94-.57-.63-.89h0a3.86,3.86,0,0,1-1.92-.13,98.27,98.27,0,0,0-12.21-3.08,98.5,98.5,0,0,0-15.78-1.08c-4,.05-7.31.92-11.11,1.58C61.86,109.84,61,108.46,61.45,107.91Z" class="cls-21"/><path d="M175,99.23c-4.74-5.13-11.57-8.55-19.32-7.39-4.76.71-8.6,3.28-12.32,6a42.42,42.42,0,0,0-4,2.64,34,34,0,0,1-3.11,2.17c-1.29.72-2.65,0-3.9-.27a.17.17,0,0,0-.14,0l-.29-.3c.1.1-.36-.27-.31-.14-.09-.25-.37.19-.39.29s.3.62.37.83a2.63,2.63,0,0,0,.54.8,6,6,0,0,1-1.86-1.32c-.06-.08-.14-.06-.2,0s0-.08,0-.13c-.12-.36-.51.09-.52.31a4.94,4.94,0,0,0,.57,2.45,7.43,7.43,0,0,1-1.49-2.7c-.12-.41-.59.14-.55.42.32,2.37,2.62,5.65,4.94,6.06.35.06.88-.66.54-1h0a3.92,3.92,0,0,0,1.89-.33,97.25,97.25,0,0,1,11.83-4.32,96.6,96.6,0,0,1,15.58-2.71c4-.37,7.37.15,11.22.41C174.79,101.19,175.47,99.73,175,99.23Z" class="cls-19"/><path d="M61.3,105.14c4.18-5.6,10.62-9.7,18.45-9.35,4.8.21,8.89,2.37,12.88,4.74a43.65,43.65,0,0,1,4.3,2.21,35.6,35.6,0,0,0,3.31,1.83c1.35.58,2.63-.29,3.85-.67a.21.21,0,0,1,.15,0l.25-.33c-.09.11.33-.3.3-.16.06-.27.39.15.41.24s-.23.65-.28.87a2.6,2.6,0,0,1-.45.85,6.22,6.22,0,0,0,1.71-1.51c0-.08.13-.07.2,0l0-.13c.08-.38.51,0,.55.25a4.89,4.89,0,0,1-.32,2.49,7.44,7.44,0,0,0,1.2-2.83c.08-.43.61.07.6.35-.07,2.39-2,5.89-4.29,6.55-.34.09-.94-.57-.63-.89h0a4,4,0,0,1-1.92-.13,98,98,0,0,0-12.22-3.08,97.23,97.23,0,0,0-15.77-1.08c-4,0-7.31.92-11.12,1.57C61.72,107.07,60.9,105.69,61.3,105.14Z" class="cls-19"/><path d="M217,67.84A113.62,113.62,0,0,0,203.5,40.46c-11.2-16.38-30.54-31-51-37.68-11.72-3.84-24.21-3.38-36.21-.59,0-.12,0-.23-.11-.19-24.7,6.21-48.6,15.89-67.66,31.46C40.43,40.05,32.28,47.87,28.33,57c-4.33,10-3.91,19.43-.92,29.41,0,.1,0,.21-.05.31a18.48,18.48,0,0,0-2.55,5.67,23,23,0,0,1,4.25-6.66C35,79.45,43,75.85,50.55,71.94c8.87-4.58,18-8.56,27.16-12.55,8-3.48,16.39-7.37,25.22-8a.59.59,0,0,1,.35,1.07c-3.77,2.33-8,3.45-12,5.19-5,2.15-9.93,4.33-14.7,6.92-7,3.8-14.42,8.17-19.89,14.15A232.4,232.4,0,0,1,79.11,65.87,114.3,114.3,0,0,1,103,56.94c6.17-1.43,13.2-3.11,19.57-2.81,2.31.11,4.89.39,6.52,2.23.84,1-.25,2-1.1,2.33-7.93,3.46-16.54,5.59-24.88,7.81-17.44,4.63-35,9.81-50.43,19.38-6.49,4-14.53,9.05-17.92,16.22-2,4.21-2.16,8.82.47,12.81a90.47,90.47,0,0,0,6.28,7.67.58.58,0,0,1-.61.89c-6.15-1.87-12.66-4.89-16.4-9.69,1.65,8.93,13.29,10.85,20.75,16a.46.46,0,0,0,.27.07,22.89,22.89,0,0,1,2.79,2.23,37.68,37.68,0,0,1,6.06,8.39.33.33,0,0,0,.44.16c.16.44.94-.21,1-.63.65-5.62-.1-11.18-.58-16.77a51.4,51.4,0,0,0-2.37-9.83c-.89-3-1.57-4.66-.94-7.39,5.77-7.13,14.81-12.66,23.64-16.33,13.08-5.43,28.31-7.81,42.59-8.7a100.19,100.19,0,0,1,45.94,7.91,114.4,114.4,0,0,1,17.12,9.34,74.66,74.66,0,0,1,7.64,5.55,43.36,43.36,0,0,0-2.56,15c0,5.08,0,10.82,2,15.55.07.17.25.18.4.18,4,0,8.5-3.38,11.67-6.42a132.72,132.72,0,0,0,12.85-10.81c3.52-3.34,6.65-7.38,7.56-11.89.49-2.4-.84-4.65-2.7-6.63-.15-.47-.32-.92-.49-1.37a1,1,0,0,0,.28-.47l0-.18a.48.48,0,0,0,.09-.28c0-.05,0-.1,0-.16.81-5,1.86-9.9,1.93-14.91C220,76.74,218.53,72.27,217,67.84ZM27.67,73.61a.58.58,0,0,1-.83-.76C29.12,67.1,32.78,62,36.71,57.27A159.83,159.83,0,0,1,49.24,43.53a133.65,133.65,0,0,1,30.31-21.7.58.58,0,0,1,.57,0l.34-.17A173.69,173.69,0,0,1,97.1,14.46c3.21-1.17,6.46-2.17,9.71-3.22a21.52,21.52,0,0,1,7-1.4.59.59,0,0,1,.35,1.07c-3.48,2.22-7.4,3.41-11.3,4.68A103.46,103.46,0,0,0,89.7,21c-8.62,4.18-17.06,8.92-23.42,16.24-3,3.47-5.56,7.27-8.79,10.54-2.82,2.85-5.81,5.51-8.87,8.09-4.07,3.43-8.23,6.73-12.25,10.24C33.53,68.55,30.86,71.57,27.67,73.61Zm102.8-51.29c-.61,2.27-12.89,14-18.6,16.29C103.3,42,94.57,45,86.09,48.7c-8.85,3.82-17.48,8.21-26,12.74-4.27,2.27-8.59,4.51-12.76,7-3.39,2-6.43,4.54-10,6.3-.54.27-1.29-.39-.75-.87,13.3-12,28-22.24,43.18-31.75,1-.76,1.93-1.53,2.88-2.32,6.58-5.4,32.6-19.13,38.52-21.56,1.7-.7,8.34-4.29,9.81-1.95C132,17.76,130.87,20.83,130.47,22.32Z" class="cls-4"/><path d="M217,67.84A113.62,113.62,0,0,0,203.5,40.46c-11.2-16.38-30.54-31-51-37.68A58.18,58.18,0,0,0,134.11,0,65.38,65.38,0,0,1,154,8.21c14.71,9,27.79,20.83,36,36.15a.59.59,0,0,1-.76.84c-6.51-3.49-12.36-8-19.11-11a217,217,0,0,0-21.44-8c-4-1.31-7.95-2.5-12-3.53,17.42,7.82,34.53,17.94,46.16,33.15.3.39-.13,1.06-.61.89-3.48-1.21-6.74-2.9-10.11-4.36a44.09,44.09,0,0,0-12.51-3.27,144.52,144.52,0,0,0-26.3-.94A92.62,92.62,0,0,0,107,53.24a102.65,102.65,0,0,0-11.38,5.23c1.81-.33,3.61-.68,5.41-1l2-.5c6.17-1.43,13.2-3.11,19.57-2.81a15.45,15.45,0,0,1,3.75.55,191.35,191.35,0,0,1,29,3.24,88,88,0,0,1,27.84,9.83,104.39,104.39,0,0,1,9.9,6.19c2.64,1.92,5.44,4.17,6.35,7.45a.6.6,0,0,1-.53.77c-3,.42-5.83-.38-8.79-.89-3.17-.55-35.9-11.84-41.26-13.87-5.93-2.25-12.57-2.79-18.87-2.76A128.63,128.63,0,0,0,103.88,68c3.69,0,7.37.15,11,.39,6.55.43,13.16.52,19.69,1.22,5.65.61,11.58,1.58,16.32,4.94.43.31.09,1-.36,1-12.6.88-25.15.16-37.71,1.86a154.23,154.23,0,0,0-33,7.79C72.42,87.94,65,91.09,58.39,95.55c-6.23,4.22-12.41,9.89-13.13,17.83a.59.59,0,0,1-1.06.19c-3.62-6.75-1-15.82,3.31-21.62a66.41,66.41,0,0,1,4.83-5.85c-6.43,4-14.24,9-17.57,16-2,4.21-2.16,8.82.47,12.81a90.47,90.47,0,0,0,6.28,7.67.58.58,0,0,1-.61.89c-6.15-1.87-12.66-4.89-16.4-9.69,1.65,8.93,13.29,10.85,20.75,16a.46.46,0,0,0,.27.07,22.89,22.89,0,0,1,2.79,2.23,37.68,37.68,0,0,1,6.06,8.39.33.33,0,0,0,.44.16c.16.44.94-.21,1-.63.65-5.62-.1-11.18-.58-16.77a51.4,51.4,0,0,0-2.37-9.83c-.89-3-1.57-4.66-.94-7.39,5.77-7.13,14.81-12.66,23.64-16.33,13.08-5.43,28.31-7.81,42.59-8.7a100.19,100.19,0,0,1,45.94,7.91,114.4,114.4,0,0,1,17.12,9.34,74.66,74.66,0,0,1,7.64,5.55,43.36,43.36,0,0,0-2.56,15c0,5.08,0,10.82,2,15.55.07.17.25.18.4.18,4,0,8.5-3.38,11.67-6.42a132.72,132.72,0,0,0,12.85-10.81c3.52-3.34,6.65-7.38,7.56-11.89.49-2.4-.84-4.65-2.7-6.63-.15-.47-.32-.92-.49-1.37a1,1,0,0,0,.28-.47l0-.18a.48.48,0,0,0,.09-.28c0-.05,0-.1,0-.16.81-5,1.86-9.9,1.93-14.91C220,76.74,218.53,72.27,217,67.84Z" class="cls-22"/><path d="M246.38,238.37c1.05-4,1.24-5.18.21-9.37-1.53-6.22-4.75-15.65-6.79-21.71-.64-1.38-1.28-2.74-1.89-4.07-5.89-12.69-13.35-24.65-19.94-37a396.52,396.52,0,0,1-18.32-38.44c-2.44-6.08-4.19-12.51-6.88-18.46a.54.54,0,0,0,.1-.25,8.35,8.35,0,0,0-2.49-5.67c-.06-.07-.15-.17-.24-.29a5.51,5.51,0,0,0-1-1.19c-1.19-1.44-2.86-3.3-3.64-3.18-.25,0-.71.76-.31.78a.4.4,0,0,1,.2.12.18.18,0,0,0,0,.16c1.68,3.89.68,10.21.83,14.4.18,4.94.38,9.88.67,14.81-.83,7.83-2.49,15.48-3.74,23.28-1.59,9.9-1.2,20.71-1.06,30.72s.15,20.07,1.14,30c.89,8.83,1.2,19.12,4.41,27.6.26,1.19.55,2.38.91,3.57,1.23,4,4.55,6.52,8.26,8.41a.45.45,0,0,0,.42,0c.14.69.28,1.37.44,2.06.51,2.23,1,5.75,2.73,7.42.44.43,1.14-.51,1.17-1,3.94-.85,8.12-1.39,11.94-2.61a2.54,2.54,0,0,0,1.54-3.59v0c-.1-.44-.23-.89-.32-1.34-.19-.9-.31-1.81-.42-2.73,2.34-.66,4.75-1,7.09-1.71a148.82,148.82,0,0,0,17.82-6.16C241.47,242,244.84,240.58,246.38,238.37Z" class="cls-2"/><path d="M213.65,253.53c-.92-.87-1.87-1.87-1.45-2s.86-.31,1.3-.45Q213.52,252.29,213.65,253.53Z" class="cls-3"/><path d="M240.81,240.67c-4.32,2.33-9.4,3.79-14.06,5.27s-9.23,2.3-13.77,3.72a6.26,6.26,0,0,0-2.16,1,61.26,61.26,0,0,1-.9-7.15,81.2,81.2,0,0,0-.7-9.22c0-.27-.42.09-.4.28.4,4,0,8,0,12,0,1.7.64,3.25.64,4.95,0,.62.09.89.38,1.15.24,1.24,2.45,2.22,3.17,2.84,1.79,1.54-4.64,2.3-4.89,2.34a27.77,27.77,0,0,0-6.85,2.12l-.12.09c-1.19-2.42-1.4-5.84-2-8.33-.87-3.88-1.36-7.83-2-11.75-1-6.38-1.92-12.76-3-19.12-.07-.39-.57.1-.58.32-.4,7.08,1.07,14.78,2.08,21.77.37,2.6.76,5.18,1.24,7.75-1-.94-2.22-1.63-3.3-2.51-2.52-2.06-3.15-3.12-4.29-6.41a.36.36,0,0,0,0-.22c-1.8-9.86-3.36-19.68-4.38-29.66-1.07-10.39-1-20.9-1.16-31.33-.13-9.51-.25-19.53,1-29,.81-6,1.88-11.81,2.43-17.73a155.18,155.18,0,0,0,4.51,28.22c5.5,20.79,12,42,20.15,62,.13.34.55,0,.77-.31,4.13.38,8.3,0,12.44.4a34.23,34.23,0,0,1,13.74,4.53,20.92,20.92,0,0,1,5.53,4.87C247.2,237,243.33,239.31,240.81,240.67Z" class="cls-3"/><path d="M243.66,230c-7.46-7.45-21-9.27-31-7.1-5.75-21.47-14-42.26-19.71-63.75-2.87-10.75-3.88-21.61-4.64-32.67l-1.11-16.24c-.2-2.9.11-6.36-.77-9.25.27.4.5.75.59.87l.25.32a.17.17,0,0,0,.13.16c.26.33.53.67.81,1,.64,1.2,1.38,3.11,1.59,3.6,1.18,2.7,2,5.71,2.93,8.49q2.94,8.92,6.5,17.62a386,386,0,0,0,16.88,35c11.2,21.09,24.76,41.52,30.17,65A18.07,18.07,0,0,0,243.66,230Z" class="cls-3"/><path d="M246.59,229c-1.53-6.22-4.75-15.65-6.79-21.71-.64-1.38-1.28-2.74-1.89-4.07-5.89-12.69-13.35-24.65-19.94-37a396.52,396.52,0,0,1-18.32-38.44c-2.44-6.08-4.19-12.51-6.88-18.46a.54.54,0,0,0,.1-.25,8.35,8.35,0,0,0-2.49-5.67c-.06-.07-.15-.17-.24-.29a5.51,5.51,0,0,0-1-1.19c-1.19-1.44-2.86-3.3-3.64-3.18-.25,0-.71.76-.31.78a.4.4,0,0,1,.2.12.18.18,0,0,0,0,.16,17,17,0,0,1,1,6.38c.77,4.62.9,9.36,2.26,13.86,1.84,6.09,4.49,11.8,6.71,17.74,4.29,11.47,9.66,22.54,14.36,33.84,6.56,15.75,16.73,35.43,4.13,50.91a.58.58,0,0,1-.92-.07c-9.35-16.95-14.73-35.56-19.22-54.28-2.27-9.43-4.65-19-5.64-28.66-.67-6.53-1-13.11-1.62-19.64.13,3,.27,6.09.45,9.13-.83,7.83-2.49,15.48-3.74,23.28A116.55,116.55,0,0,0,182,170c.77-6.48,2-13,4.84-18.59a.59.59,0,0,1,1.07.09c2.34,8,2.28,16.37,3,24.62.78,9.28,3.6,18,6,26.9,4,14.91,9.28,31.56,6.51,47.11a.58.58,0,0,1-1.12.06C198,237,193.79,223.66,191.07,210c.18,5.71.84,11.4,1.37,17.1.24,2.54,1.49,8.74-1.92,10.13a5.12,5.12,0,0,1-4.06-.33c.35,1.27.74,2.52,1.2,3.73.26,1.19.55,2.38.91,3.57,1.23,4,4.55,6.52,8.26,8.41a.45.45,0,0,0,.42,0c.14.69.28,1.37.44,2.06.51,2.23,1,5.75,2.73,7.42.44.43,1.14-.51,1.17-1,3.94-.85,8.12-1.39,11.94-2.61a2.54,2.54,0,0,0,1.54-3.59v0c-.1-.44-.23-.89-.32-1.34-.19-.9-.31-1.81-.42-2.73,2.34-.66,4.75-1,7.09-1.71a148.82,148.82,0,0,0,17.82-6.16c2.24-1,5.61-2.34,7.15-4.55C247.43,234.33,247.62,233.19,246.59,229Z" class="cls-4"/></g></g></g></svg>